<svg xmlns="http://www.w3.org/2000/svg" viewBox="0 0 270 62" width="270" height="62" role="img" aria-label="Email me"><defs><linearGradient id="bg" x1="0" y1="0" x2="1" y2="1"><stop offset="0" stop-color="#0B1120"/><stop offset="0.6" stop-color="#111A33"/><stop offset="1" stop-color="#0B1120"/></linearGradient><pattern id="grid" width="32" height="32" patternUnits="userSpaceOnUse"><path d="M32 0H0V32" fill="none" stroke="#FFFFFF" stroke-opacity="0.04"/></pattern><filter id="blur" x="-100%" y="-100%" width="300%" height="300%"><feGaussianBlur stdDeviation="48"/></filter><clipPath id="clip"><rect width="270" height="62" rx="16"/></clipPath></defs><g clip-path="url(#clip)"><rect width="270" height="62" fill="url(#bg)"/><g filter="url(#blur)"><circle cx="40" cy="31" r="60" fill="#FB7185" fill-opacity="0.35"/></g><rect x="10" y="10" width="42" height="42" rx="12" fill="#FB7185" fill-opacity="0.16" stroke="#FB7185" stroke-opacity="0.5"/><g transform="translate(20.0,20.0) scale(0.92)" fill="none" stroke="#FB7185" stroke-width="2" stroke-linecap="round" stroke-linejoin="round"><rect x="3" y="5" width="18" height="14" rx="2.5"/><path d="M3.5 7.5l8.5 6 8.5-6"/></g><text x="68" y="38" font-family="system-ui, -apple-system, 'Segoe UI', Roboto, Helvetica, Arial, sans-serif" font-size="18" font-weight="700" fill="#E2E8F0">Email me</text><g transform="translate(230,19)" fill="none" stroke="#64748B" stroke-width="2" stroke-linecap="round" stroke-linejoin="round"><path d="M5 17L17 5"/><path d="M8 5h9v9"/></g><rect x="0.5" y="0.5" width="269" height="61" rx="15.5" fill="none" stroke="#FFFFFF" stroke-opacity="0.09"/></g></svg>