<svg xmlns="http://www.w3.org/2000/svg" viewBox="0 0 600 318" width="600" height="318" role="img" aria-label="TrustLance — Freelance marketplace with role-based access and authenticated APIs, built on Next.js with Supabase and Firebase."><defs><linearGradient id="bg" x1="0" y1="0" x2="1" y2="1"><stop offset="0" stop-color="#0B1120"/><stop offset="0.6" stop-color="#111A33"/><stop offset="1" stop-color="#0B1120"/></linearGradient><pattern id="grid" width="32" height="32" patternUnits="userSpaceOnUse"><path d="M32 0H0V32" fill="none" stroke="#FFFFFF" stroke-opacity="0.04"/></pattern><filter id="blur" x="-100%" y="-100%" width="300%" height="300%"><feGaussianBlur stdDeviation="48"/></filter><clipPath id="clip"><rect width="600" height="318" rx="18"/></clipPath><linearGradient id="acc" x1="0" y1="0" x2="1" y2="0"><stop offset="0" stop-color="#34D399"/><stop offset="1" stop-color="#6366F1"/></linearGradient></defs><g clip-path="url(#clip)"><rect width="600" height="318" fill="url(#bg)"/><rect width="600" height="318" fill="url(#grid)"/><g filter="url(#blur)"><circle cx="560" cy="30" r="150" fill="#34D399" fill-opacity="0.22"/></g><rect width="600" height="3" fill="url(#acc)"/><rect x="32" y="32" width="56" height="56" rx="15" fill="#34D399" fill-opacity="0.13" stroke="#34D399" stroke-opacity="0.45"/><g transform="translate(46.2,46.2) scale(1.15)" fill="none" stroke="#34D399" stroke-width="1.8" stroke-linecap="round" stroke-linejoin="round"><rect x="3" y="7.5" width="18" height="12.5" rx="2.5"/><path d="M8.5 7.5V5.8A1.8 1.8 0 0 1 10.3 4h3.4a1.8 1.8 0 0 1 1.8 1.8v1.7"/><path d="M3 13h18"/></g><text x="108" y="56" font-family="ui-monospace, SFMono-Regular, 'SF Mono', Menlo, Consolas, 'Liberation Mono', monospace" font-size="12" letter-spacing="2" font-weight="700" fill="#34D399">MARKETPLACE  ·  FULL STACK</text><text x="108" y="84" font-family="system-ui, -apple-system, 'Segoe UI', Roboto, Helvetica, Arial, sans-serif" font-size="26" font-weight="750" fill="#E2E8F0">TrustLance</text><g transform="translate(546,36)" fill="none" stroke="#94A3B8" stroke-width="2" stroke-linecap="round" stroke-linejoin="round"><path d="M5 17L17 5"/><path d="M8 5h9v9"/></g><text x="32" y="136" font-family="system-ui, -apple-system, 'Segoe UI', Roboto, Helvetica, Arial, sans-serif" font-size="17" fill="#94A3B8">Freelance marketplace with role-based access and</text><text x="32" y="163" font-family="system-ui, -apple-system, 'Segoe UI', Roboto, Helvetica, Arial, sans-serif" font-size="17" fill="#94A3B8">authenticated APIs, built on Next.js with Supabase and</text><text x="32" y="190" font-family="system-ui, -apple-system, 'Segoe UI', Roboto, Helvetica, Arial, sans-serif" font-size="17" fill="#94A3B8">Firebase.</text><g transform="translate(32.0,212.0)"><rect width="91.1" height="30" rx="15.0" fill="#34D399" fill-opacity="0.11" stroke="#34D399" stroke-opacity="0.40"/><circle cx="15" cy="15.0" r="3.8" fill="#34D399"/><text x="26" y="19.7" font-family="ui-monospace, SFMono-Regular, 'SF Mono', Menlo, Consolas, 'Liberation Mono', monospace" font-size="13" fill="#E2E8F0">Next.js</text></g><g transform="translate(133.1,212.0)"><rect width="98.9" height="30" rx="15.0" fill="#34D399" fill-opacity="0.11" stroke="#34D399" stroke-opacity="0.40"/><circle cx="15" cy="15.0" r="3.8" fill="#34D399"/><text x="26" y="19.7" font-family="ui-monospace, SFMono-Regular, 'SF Mono', Menlo, Consolas, 'Liberation Mono', monospace" font-size="13" fill="#E2E8F0">Supabase</text></g><g transform="translate(242.0,212.0)"><rect width="98.9" height="30" rx="15.0" fill="#34D399" fill-opacity="0.11" stroke="#34D399" stroke-opacity="0.40"/><circle cx="15" cy="15.0" r="3.8" fill="#34D399"/><text x="26" y="19.7" font-family="ui-monospace, SFMono-Regular, 'SF Mono', Menlo, Consolas, 'Liberation Mono', monospace" font-size="13" fill="#E2E8F0">Tailwind</text></g><rect x="32" y="266" width="536" height="1" fill="#FFFFFF" fill-opacity="0.07"/><text x="32" y="296" font-family="ui-monospace, SFMono-Regular, 'SF Mono', Menlo, Consolas, 'Liberation Mono', monospace" font-size="13" fill="#64748B">TheParthi/Freelancer_Marketplace_TrustLance</text><circle cx="475.35" cy="291.5" r="5" fill="#3178C6"/><text x="568" y="296" text-anchor="end" font-family="ui-monospace, SFMono-Regular, 'SF Mono', Menlo, Consolas, 'Liberation Mono', monospace" font-size="13" fill="#94A3B8">TypeScript</text><rect x="0.5" y="0.5" width="599" height="317" rx="17.5" fill="none" stroke="#FFFFFF" stroke-opacity="0.09"/></g></svg>