<svg xmlns="http://www.w3.org/2000/svg" viewBox="0 0 612 372" width="612" height="372" role="img" aria-label="TrustLance - Freelance marketplace with role-based access and authenticated APIs, on Next.js with Supabase and Firebase."><defs><linearGradient id="bg" x1="0" y1="0" x2="1" y2="1"><stop offset="0" stop-color="#0B1120"/><stop offset="0.6" stop-color="#111A33"/><stop offset="1" stop-color="#0B1120"/></linearGradient><pattern id="grid" width="32" height="32" patternUnits="userSpaceOnUse"><path d="M32 0H0V32" fill="none" stroke="#FFFFFF" stroke-opacity="0.04"/></pattern><clipPath id="clip"><rect width="588" height="372" rx="18"/></clipPath><radialGradient id="glow0"><stop offset="0" stop-color="#34D399" stop-opacity="0.26"/><stop offset="1" stop-color="#34D399" stop-opacity="0"/></radialGradient><linearGradient id="acc" x1="0" y1="0" x2="1" y2="0"><stop offset="0" stop-color="#34D399"/><stop offset="1" stop-color="#6366F1"/></linearGradient></defs><g transform="translate(12,0)"><g clip-path="url(#clip)"><rect width="588" height="372" fill="url(#bg)"/><rect width="588" height="372" fill="url(#grid)"/><circle cx="548" cy="30" r="240" fill="url(#glow0)"/><rect width="588" height="3" fill="url(#acc)"/><rect x="34" y="34" width="64" height="64" rx="17" fill="#34D399" fill-opacity="0.13" stroke="#34D399" stroke-opacity="0.45"/><g transform="translate(51.0,51.0) scale(1.25)" fill="none" stroke="#34D399" stroke-width="1.9" stroke-linecap="round" stroke-linejoin="round"><rect x="3" y="7.5" width="18" height="12.5" rx="2.5"/><path d="M8.5 7.5V5.8A1.8 1.8 0 0 1 10.3 4h3.4a1.8 1.8 0 0 1 1.8 1.8v1.7"/><path d="M3 13h18"/></g><text x="118" y="58" font-family="ui-monospace, SFMono-Regular, 'SF Mono', Menlo, Consolas, 'Liberation Mono', monospace" font-size="14.5" letter-spacing="1.8" font-weight="700" fill="#34D399">MARKETPLACE · FULL STACK</text><text x="118" y="92" font-family="system-ui, -apple-system, 'Segoe UI', Roboto, Helvetica, Arial, sans-serif" font-size="30.0" font-weight="750" fill="#E2E8F0">TrustLance</text><g transform="translate(530,36) scale(1.0)" fill="none" stroke="#94A3B8" stroke-width="2.2" stroke-linecap="round" stroke-linejoin="round"><path d="M5 19L19 5"/><path d="M8 5h11v11"/></g><text x="34" y="158" font-family="system-ui, -apple-system, 'Segoe UI', Roboto, Helvetica, Arial, sans-serif" font-size="19" fill="#94A3B8">Freelance marketplace with role-based access and</text><text x="34" y="187" font-family="system-ui, -apple-system, 'Segoe UI', Roboto, Helvetica, Arial, sans-serif" font-size="19" fill="#94A3B8">authenticated APIs, on Next.js with Supabase and</text><text x="34" y="216" font-family="system-ui, -apple-system, 'Segoe UI', Roboto, Helvetica, Arial, sans-serif" font-size="19" fill="#94A3B8">Firebase.</text><g transform="translate(34.0,248.0)"><rect width="103.5" height="36" rx="18.0" fill="#34D399" fill-opacity="0.11" stroke="#34D399" stroke-opacity="0.42"/><circle cx="17" cy="18.0" r="4.4" fill="#34D399"/><text x="29" y="23.4" font-family="ui-monospace, SFMono-Regular, 'SF Mono', Menlo, Consolas, 'Liberation Mono', monospace" font-size="15" fill="#E2E8F0">Next.js</text></g><g transform="translate(147.5,248.0)"><rect width="112.6" height="36" rx="18.0" fill="#34D399" fill-opacity="0.11" stroke="#34D399" stroke-opacity="0.42"/><circle cx="17" cy="18.0" r="4.4" fill="#34D399"/><text x="29" y="23.4" font-family="ui-monospace, SFMono-Regular, 'SF Mono', Menlo, Consolas, 'Liberation Mono', monospace" font-size="15" fill="#E2E8F0">Supabase</text></g><g transform="translate(270.1,248.0)"><rect width="112.6" height="36" rx="18.0" fill="#34D399" fill-opacity="0.11" stroke="#34D399" stroke-opacity="0.42"/><circle cx="17" cy="18.0" r="4.4" fill="#34D399"/><text x="29" y="23.4" font-family="ui-monospace, SFMono-Regular, 'SF Mono', Menlo, Consolas, 'Liberation Mono', monospace" font-size="15" fill="#E2E8F0">Tailwind</text></g><rect x="34" y="310" width="520" height="1" fill="#FFFFFF" fill-opacity="0.08"/><text x="34" y="346" font-family="ui-monospace, SFMono-Regular, 'SF Mono', Menlo, Consolas, 'Liberation Mono', monospace" font-size="15" fill="#64748B">Freelancer_Marketplace_TrustLance</text><circle cx="448.2" cy="341" r="5.5" fill="#3178C6"/><text x="554" y="346" text-anchor="end" font-family="ui-monospace, SFMono-Regular, 'SF Mono', Menlo, Consolas, 'Liberation Mono', monospace" font-size="15" fill="#94A3B8">TypeScript</text><rect x="0.5" y="0.5" width="587" height="371" rx="17.5" fill="none" stroke="#FFFFFF" stroke-opacity="0.09"/></g></g></svg>