<svg xmlns="http://www.w3.org/2000/svg" viewBox="0 0 1200 328" width="1200" height="328" role="img" aria-label="Tech stack"><defs><linearGradient id="bg" x1="0" y1="0" x2="1" y2="1"><stop offset="0" stop-color="#0B1120"/><stop offset="0.6" stop-color="#111A33"/><stop offset="1" stop-color="#0B1120"/></linearGradient><pattern id="grid" width="32" height="32" patternUnits="userSpaceOnUse"><path d="M32 0H0V32" fill="none" stroke="#FFFFFF" stroke-opacity="0.04"/></pattern><filter id="blur" x="-100%" y="-100%" width="300%" height="300%"><feGaussianBlur stdDeviation="48"/></filter><clipPath id="clip"><rect width="1200" height="328" rx="18"/></clipPath></defs><g clip-path="url(#clip)"><rect width="1200" height="328" fill="url(#bg)"/><rect width="1200" height="328" fill="url(#grid)"/><g filter="url(#blur)"><circle cx="1100" cy="0" r="200" fill="#06B6D4" fill-opacity="0.14"/><circle cx="80" cy="328" r="200" fill="#A855F7" fill-opacity="0.12"/></g><rect x="40.0" y="42" width="3" height="14" rx="1.5" fill="#6366F1"/><text x="52.0" y="54" font-family="ui-monospace, SFMono-Regular, 'SF Mono', Menlo, Consolas, 'Liberation Mono', monospace" font-size="12.5" letter-spacing="2.2" font-weight="700" fill="#6366F1">LANGUAGES</text><g transform="translate(40.0,70)"><g transform="translate(0.0,0.0)"><rect width="68.7" height="30" rx="15.0" fill="#6366F1" fill-opacity="0.11" stroke="#6366F1" stroke-opacity="0.40"/><circle cx="15" cy="15.0" r="3.8" fill="#6366F1"/><text x="26" y="19.9" font-family="ui-monospace, SFMono-Regular, 'SF Mono', Menlo, Consolas, 'Liberation Mono', monospace" font-size="13.5" fill="#E2E8F0">Java</text></g><g transform="translate(78.7,0.0)"><rect width="117.7" height="30" rx="15.0" fill="#6366F1" fill-opacity="0.11" stroke="#6366F1" stroke-opacity="0.40"/><circle cx="15" cy="15.0" r="3.8" fill="#6366F1"/><text x="26" y="19.9" font-family="ui-monospace, SFMono-Regular, 'SF Mono', Menlo, Consolas, 'Liberation Mono', monospace" font-size="13.5" fill="#E2E8F0">TypeScript</text></g><g transform="translate(206.3,0.0)"><rect width="85.0" height="30" rx="15.0" fill="#6366F1" fill-opacity="0.11" stroke="#6366F1" stroke-opacity="0.40"/><circle cx="15" cy="15.0" r="3.8" fill="#6366F1"/><text x="26" y="19.9" font-family="ui-monospace, SFMono-Regular, 'SF Mono', Menlo, Consolas, 'Liberation Mono', monospace" font-size="13.5" fill="#E2E8F0">Python</text></g><g transform="translate(0.0,40.0)"><rect width="60.5" height="30" rx="15.0" fill="#6366F1" fill-opacity="0.11" stroke="#6366F1" stroke-opacity="0.40"/><circle cx="15" cy="15.0" r="3.8" fill="#6366F1"/><text x="26" y="19.9" font-family="ui-monospace, SFMono-Regular, 'SF Mono', Menlo, Consolas, 'Liberation Mono', monospace" font-size="13.5" fill="#E2E8F0">SQL</text></g></g><rect x="422.6666666666667" y="42" width="3" height="14" rx="1.5" fill="#A855F7"/><text x="434.6666666666667" y="54" font-family="ui-monospace, SFMono-Regular, 'SF Mono', Menlo, Consolas, 'Liberation Mono', monospace" font-size="12.5" letter-spacing="2.2" font-weight="700" fill="#A855F7">BACKEND</text><g transform="translate(422.7,70)"><g transform="translate(0.0,0.0)"><rect width="125.8" height="30" rx="15.0" fill="#A855F7" fill-opacity="0.11" stroke="#A855F7" stroke-opacity="0.40"/><circle cx="15" cy="15.0" r="3.8" fill="#A855F7"/><text x="26" y="19.9" font-family="ui-monospace, SFMono-Regular, 'SF Mono', Menlo, Consolas, 'Liberation Mono', monospace" font-size="13.5" fill="#E2E8F0">Spring Boot</text></g><g transform="translate(135.8,0.0)"><rect width="85.0" height="30" rx="15.0" fill="#A855F7" fill-opacity="0.11" stroke="#A855F7" stroke-opacity="0.40"/><circle cx="15" cy="15.0" r="3.8" fill="#A855F7"/><text x="26" y="19.9" font-family="ui-monospace, SFMono-Regular, 'SF Mono', Menlo, Consolas, 'Liberation Mono', monospace" font-size="13.5" fill="#E2E8F0">NestJS</text></g><g transform="translate(230.8,0.0)"><rect width="85.0" height="30" rx="15.0" fill="#A855F7" fill-opacity="0.11" stroke="#A855F7" stroke-opacity="0.40"/><circle cx="15" cy="15.0" r="3.8" fill="#A855F7"/><text x="26" y="19.9" font-family="ui-monospace, SFMono-Regular, 'SF Mono', Menlo, Consolas, 'Liberation Mono', monospace" font-size="13.5" fill="#E2E8F0">Prisma</text></g><g transform="translate(0.0,40.0)"><rect width="109.5" height="30" rx="15.0" fill="#A855F7" fill-opacity="0.11" stroke="#A855F7" stroke-opacity="0.40"/><circle cx="15" cy="15.0" r="3.8" fill="#A855F7"/><text x="26" y="19.9" font-family="ui-monospace, SFMono-Regular, 'SF Mono', Menlo, Consolas, 'Liberation Mono', monospace" font-size="13.5" fill="#E2E8F0">Socket.IO</text></g><g transform="translate(119.5,40.0)"><rect width="117.7" height="30" rx="15.0" fill="#A855F7" fill-opacity="0.11" stroke="#A855F7" stroke-opacity="0.40"/><circle cx="15" cy="15.0" r="3.8" fill="#A855F7"/><text x="26" y="19.9" font-family="ui-monospace, SFMono-Regular, 'SF Mono', Menlo, Consolas, 'Liberation Mono', monospace" font-size="13.5" fill="#E2E8F0">REST · JWT</text></g></g><rect x="805.3333333333334" y="42" width="3" height="14" rx="1.5" fill="#06B6D4"/><text x="817.3333333333334" y="54" font-family="ui-monospace, SFMono-Regular, 'SF Mono', Menlo, Consolas, 'Liberation Mono', monospace" font-size="12.5" letter-spacing="2.2" font-weight="700" fill="#06B6D4">MOBILE  ·  WEB</text><g transform="translate(805.3,70)"><g transform="translate(0.0,0.0)"><rect width="134.0" height="30" rx="15.0" fill="#06B6D4" fill-opacity="0.11" stroke="#06B6D4" stroke-opacity="0.40"/><circle cx="15" cy="15.0" r="3.8" fill="#06B6D4"/><text x="26" y="19.9" font-family="ui-monospace, SFMono-Regular, 'SF Mono', Menlo, Consolas, 'Liberation Mono', monospace" font-size="13.5" fill="#E2E8F0">React Native</text></g><g transform="translate(144.0,0.0)"><rect width="76.8" height="30" rx="15.0" fill="#06B6D4" fill-opacity="0.11" stroke="#06B6D4" stroke-opacity="0.40"/><circle cx="15" cy="15.0" r="3.8" fill="#06B6D4"/><text x="26" y="19.9" font-family="ui-monospace, SFMono-Regular, 'SF Mono', Menlo, Consolas, 'Liberation Mono', monospace" font-size="13.5" fill="#E2E8F0">React</text></g><g transform="translate(230.8,0.0)"><rect width="93.2" height="30" rx="15.0" fill="#06B6D4" fill-opacity="0.11" stroke="#06B6D4" stroke-opacity="0.40"/><circle cx="15" cy="15.0" r="3.8" fill="#06B6D4"/><text x="26" y="19.9" font-family="ui-monospace, SFMono-Regular, 'SF Mono', Menlo, Consolas, 'Liberation Mono', monospace" font-size="13.5" fill="#E2E8F0">Next.js</text></g><g transform="translate(0.0,40.0)"><rect width="134.0" height="30" rx="15.0" fill="#06B6D4" fill-opacity="0.11" stroke="#06B6D4" stroke-opacity="0.40"/><circle cx="15" cy="15.0" r="3.8" fill="#06B6D4"/><text x="26" y="19.9" font-family="ui-monospace, SFMono-Regular, 'SF Mono', Menlo, Consolas, 'Liberation Mono', monospace" font-size="13.5" fill="#E2E8F0">Tailwind CSS</text></g></g><rect x="40.0" y="182" width="3" height="14" rx="1.5" fill="#F472B6"/><text x="52.0" y="194" font-family="ui-monospace, SFMono-Regular, 'SF Mono', Menlo, Consolas, 'Liberation Mono', monospace" font-size="12.5" letter-spacing="2.2" font-weight="700" fill="#F472B6">AI  ·  LLM</text><g transform="translate(40.0,210)"><g transform="translate(0.0,0.0)"><rect width="76.8" height="30" rx="15.0" fill="#F472B6" fill-opacity="0.11" stroke="#F472B6" stroke-opacity="0.40"/><circle cx="15" cy="15.0" r="3.8" fill="#F472B6"/><text x="26" y="19.9" font-family="ui-monospace, SFMono-Regular, 'SF Mono', Menlo, Consolas, 'Liberation Mono', monospace" font-size="13.5" fill="#E2E8F0">GenAI</text></g><g transform="translate(86.8,0.0)"><rect width="109.5" height="30" rx="15.0" fill="#F472B6" fill-opacity="0.11" stroke="#F472B6" stroke-opacity="0.40"/><circle cx="15" cy="15.0" r="3.8" fill="#F472B6"/><text x="26" y="19.9" font-family="ui-monospace, SFMono-Regular, 'SF Mono', Menlo, Consolas, 'Liberation Mono', monospace" font-size="13.5" fill="#E2E8F0">LangChain</text></g><g transform="translate(206.3,0.0)"><rect width="109.5" height="30" rx="15.0" fill="#F472B6" fill-opacity="0.11" stroke="#F472B6" stroke-opacity="0.40"/><circle cx="15" cy="15.0" r="3.8" fill="#F472B6"/><text x="26" y="19.9" font-family="ui-monospace, SFMono-Regular, 'SF Mono', Menlo, Consolas, 'Liberation Mono', monospace" font-size="13.5" fill="#E2E8F0">LangGraph</text></g><g transform="translate(0.0,40.0)"><rect width="60.5" height="30" rx="15.0" fill="#F472B6" fill-opacity="0.11" stroke="#F472B6" stroke-opacity="0.40"/><circle cx="15" cy="15.0" r="3.8" fill="#F472B6"/><text x="26" y="19.9" font-family="ui-monospace, SFMono-Regular, 'SF Mono', Menlo, Consolas, 'Liberation Mono', monospace" font-size="13.5" fill="#E2E8F0">RAG</text></g><g transform="translate(70.5,40.0)"><rect width="85.0" height="30" rx="15.0" fill="#F472B6" fill-opacity="0.11" stroke="#F472B6" stroke-opacity="0.40"/><circle cx="15" cy="15.0" r="3.8" fill="#F472B6"/><text x="26" y="19.9" font-family="ui-monospace, SFMono-Regular, 'SF Mono', Menlo, Consolas, 'Liberation Mono', monospace" font-size="13.5" fill="#E2E8F0">Genkit</text></g><g transform="translate(165.5,40.0)"><rect width="101.3" height="30" rx="15.0" fill="#F472B6" fill-opacity="0.11" stroke="#F472B6" stroke-opacity="0.40"/><circle cx="15" cy="15.0" r="3.8" fill="#F472B6"/><text x="26" y="19.9" font-family="ui-monospace, SFMono-Regular, 'SF Mono', Menlo, Consolas, 'Liberation Mono', monospace" font-size="13.5" fill="#E2E8F0">ChromaDB</text></g></g><rect x="422.6666666666667" y="182" width="3" height="14" rx="1.5" fill="#34D399"/><text x="434.6666666666667" y="194" font-family="ui-monospace, SFMono-Regular, 'SF Mono', Menlo, Consolas, 'Liberation Mono', monospace" font-size="12.5" letter-spacing="2.2" font-weight="700" fill="#34D399">DATA</text><g transform="translate(422.7,210)"><g transform="translate(0.0,0.0)"><rect width="117.7" height="30" rx="15.0" fill="#34D399" fill-opacity="0.11" stroke="#34D399" stroke-opacity="0.40"/><circle cx="15" cy="15.0" r="3.8" fill="#34D399"/><text x="26" y="19.9" font-family="ui-monospace, SFMono-Regular, 'SF Mono', Menlo, Consolas, 'Liberation Mono', monospace" font-size="13.5" fill="#E2E8F0">PostgreSQL</text></g><g transform="translate(127.7,0.0)"><rect width="93.2" height="30" rx="15.0" fill="#34D399" fill-opacity="0.11" stroke="#34D399" stroke-opacity="0.40"/><circle cx="15" cy="15.0" r="3.8" fill="#34D399"/><text x="26" y="19.9" font-family="ui-monospace, SFMono-Regular, 'SF Mono', Menlo, Consolas, 'Liberation Mono', monospace" font-size="13.5" fill="#E2E8F0">PostGIS</text></g><g transform="translate(230.8,0.0)"><rect width="76.8" height="30" rx="15.0" fill="#34D399" fill-opacity="0.11" stroke="#34D399" stroke-opacity="0.40"/><circle cx="15" cy="15.0" r="3.8" fill="#34D399"/><text x="26" y="19.9" font-family="ui-monospace, SFMono-Regular, 'SF Mono', Menlo, Consolas, 'Liberation Mono', monospace" font-size="13.5" fill="#E2E8F0">Redis</text></g><g transform="translate(0.0,40.0)"><rect width="76.8" height="30" rx="15.0" fill="#34D399" fill-opacity="0.11" stroke="#34D399" stroke-opacity="0.40"/><circle cx="15" cy="15.0" r="3.8" fill="#34D399"/><text x="26" y="19.9" font-family="ui-monospace, SFMono-Regular, 'SF Mono', Menlo, Consolas, 'Liberation Mono', monospace" font-size="13.5" fill="#E2E8F0">MySQL</text></g><g transform="translate(86.8,40.0)"><rect width="101.3" height="30" rx="15.0" fill="#34D399" fill-opacity="0.11" stroke="#34D399" stroke-opacity="0.40"/><circle cx="15" cy="15.0" r="3.8" fill="#34D399"/><text x="26" y="19.9" font-family="ui-monospace, SFMono-Regular, 'SF Mono', Menlo, Consolas, 'Liberation Mono', monospace" font-size="13.5" fill="#E2E8F0">Supabase</text></g></g><rect x="805.3333333333334" y="182" width="3" height="14" rx="1.5" fill="#FBBF24"/><text x="817.3333333333334" y="194" font-family="ui-monospace, SFMono-Regular, 'SF Mono', Menlo, Consolas, 'Liberation Mono', monospace" font-size="12.5" letter-spacing="2.2" font-weight="700" fill="#FBBF24">CLOUD  ·  DEVOPS</text><g transform="translate(805.3,210)"><g transform="translate(0.0,0.0)"><rect width="60.5" height="30" rx="15.0" fill="#FBBF24" fill-opacity="0.11" stroke="#FBBF24" stroke-opacity="0.40"/><circle cx="15" cy="15.0" r="3.8" fill="#FBBF24"/><text x="26" y="19.9" font-family="ui-monospace, SFMono-Regular, 'SF Mono', Menlo, Consolas, 'Liberation Mono', monospace" font-size="13.5" fill="#E2E8F0">AWS</text></g><g transform="translate(70.5,0.0)"><rect width="76.8" height="30" rx="15.0" fill="#FBBF24" fill-opacity="0.11" stroke="#FBBF24" stroke-opacity="0.40"/><circle cx="15" cy="15.0" r="3.8" fill="#FBBF24"/><text x="26" y="19.9" font-family="ui-monospace, SFMono-Regular, 'SF Mono', Menlo, Consolas, 'Liberation Mono', monospace" font-size="13.5" fill="#E2E8F0">Azure</text></g><g transform="translate(157.3,0.0)"><rect width="85.0" height="30" rx="15.0" fill="#FBBF24" fill-opacity="0.11" stroke="#FBBF24" stroke-opacity="0.40"/><circle cx="15" cy="15.0" r="3.8" fill="#FBBF24"/><text x="26" y="19.9" font-family="ui-monospace, SFMono-Regular, 'SF Mono', Menlo, Consolas, 'Liberation Mono', monospace" font-size="13.5" fill="#E2E8F0">Docker</text></g><g transform="translate(0.0,40.0)"><rect width="150.3" height="30" rx="15.0" fill="#FBBF24" fill-opacity="0.11" stroke="#FBBF24" stroke-opacity="0.40"/><circle cx="15" cy="15.0" r="3.8" fill="#FBBF24"/><text x="26" y="19.9" font-family="ui-monospace, SFMono-Regular, 'SF Mono', Menlo, Consolas, 'Liberation Mono', monospace" font-size="13.5" fill="#E2E8F0">GitHub Actions</text></g><g transform="translate(160.3,40.0)"><rect width="76.8" height="30" rx="15.0" fill="#FBBF24" fill-opacity="0.11" stroke="#FBBF24" stroke-opacity="0.40"/><circle cx="15" cy="15.0" r="3.8" fill="#FBBF24"/><text x="26" y="19.9" font-family="ui-monospace, SFMono-Regular, 'SF Mono', Menlo, Consolas, 'Liberation Mono', monospace" font-size="13.5" fill="#E2E8F0">nginx</text></g></g><rect x="0.5" y="0.5" width="1199" height="327" rx="17.5" fill="none" stroke="#FFFFFF" stroke-opacity="0.09"/></g></svg>